User Type,Username,Date,Text
,morph456,2012-04-15T20:36Z,"This one seems to be the one to get.
Thanx!"
,SYNAESTHES1A,2012-04-15T21:27Z,^ Exactly my thoughts. Many thanks.
,Slic3r,2012-04-16T04:37Z,"A: 10
V: 10"
,chi18593,2012-04-16T13:03Z,"What the hell is a ""CBR"" track...is it as good as DTS..?? And please someone comment about the Audio and video quality."
,SiL3N0Z,2012-04-16T14:14Z,CBR means constant bitrate.
,jodidokie,2012-04-16T15:38Z,"http://thepiratebay.se/torrent/7190126

Try english subs in this link!"
,flash_os,2012-04-16T22:12Z,BOZX BOZX BOZX BOZX BOZX BOZX BOZX BOZX BOZX BOZX BOZX BOZX BOZX BOZX BOZX BOZX BOZX BOZX BOZX BOZX BOZX BOZX BOZX BOZX BOZX BOZX BOZX BOZX BOZX BOZX BOZX BOZX BOZX BOZX BOZX BOZX BOZX BOZX BOZX BOZX BOZX BOZX BOZX BOZX BOZX BOZX BOZX BOZX BOZX BOZX BOZX BOZX !!!!
,chi18593,2012-04-17T06:14Z,"The full Media Info For those who want to know how good it is....

General
Unique ID                                : 193537431577659263605045546387419399030 (0x9199F4177EFBDEF8B1A51E751BA38376)
Complete name                            : F:Sherlock.Holmes.A.Game.Of.Shadows.2011.720p.BluRay.x264-UNVEiL [PublicHD]sherlock.holmes.a.game.of.shadows.2011.720p.bluray.x264-unveil.mkv
Format                                   : Matroska
Format version                           : Version 2
File size                                : 5.47 GiB
Duration                                 : 2h 8mn
Overall bit rate                         : 6 078 Kbps
Encoded date                             : UTC 2012-04-15 14:16:04
Writing application                      : mkvmerge v5.5.0 ('Healer') built on Apr  6 2012 21:43:24
Writing library                          : libebml v1.2.3 + libmatroska v1.3.0

Video
ID                                       : 1
Format                                   : AVC
Format/Info                              : Advanced Video Codec
Format profile                           : High@L4.1
Format settings, CABAC                   : Yes
Format settings, ReFrames                : 5 frames
Codec ID                                 : V_MPEG4/ISO/AVC
Duration                                 : 2h 8mn
Bit rate                                 : 4 568 Kbps
Width                                    : 1 280 pixels
Height                                   : 528 pixels
Display aspect ratio                     : 2.40:1
Frame rate                               : 23.976 fps
Color space                              : YUV
Chroma subsampling                       : 4:2:0
Bit depth                                : 8 bits
Scan type                                : Progressive
Bits/(Pixel*Frame)                       : 0.282
Stream size                              : 4.00 GiB (73%)
Writing library                          : x264 core 122 r2184 5c85e0a
Encoding settings                        : cabac=1 / ref=5 / deblock=1:0:0 / analyse=0x3:0x133 / me=umh / subme=7 / psy=1 / psy_rd=1.00:0.00 / mixed_ref=1 / me_range=16 / chroma_me=1 / trellis=1 / 8x8dct=1 / cqm=0 / deadzone=21,11 / fast_pskip=0 / chroma_qp_offset=-2 / threads=12 / sliced_threads=0 / nr=0 / decimate=1 / interlaced=0 / bluray_compat=0 / constrained_intra=0 / bframes=3 / b_pyramid=2 / b_adapt=1 / b_bias=0 / direct=3 / weightb=1 / open_gop=0 / weightp=2 / keyint=240 / keyint_min=23 / scenecut=40 / intra_refresh=0 / rc_lookahead=40 / rc=2pass / mbtree=1 / bitrate=4568 / ratetol=1.0 / qcomp=0.60 / qpmin=10 / qpmax=51 / qpstep=4 / cplxblur=20.0 / qblur=0.5 / ip_ratio=1.40 / aq=1:1.00
Default                                  : Yes
Forced                                   : No

Audio
ID                                       : 2
Format                                   : DTS
Format/Info                              : Digital Theater Systems
Codec ID                                 : A_DTS
Duration                                 : 2h 8mn
Bit rate mode                            : Constant
Bit rate                                 : 1 510 Kbps
Channel(s)                               : 6 channels
Channel positions                        : Front: L C R, Side: L R, LFE
Sampling rate                            : 48.0 KHz
Bit depth                                : 24 bits
Compression mode                         : Lossy
Stream size                              : 1.36 GiB (25%)
Language                                 : English
Default                                  : Yes
Forced                                   : No"
,Bobi522344,2012-04-17T13:45Z,"Sherlock Holmes A Game of Shadows 1080p BluRay x264-UNVEiL
please upload this file to all torrents"
,chi18593,2012-04-17T21:04Z,The quality is great and the movie awesome....many many thnx BOZX !!!!!
,fridens,2012-04-19T02:48Z,http://swesub.nu/title/tt1515091/
,Garfield123321,2012-04-19T03:31Z,Please seed :( 2.0 kB/s :(
,rupelto,2012-04-20T02:46Z,"Thank You

V:10
A:10
M:9"
,rock53,2012-04-29T08:28Z,"Nice quality! Good movie!

A/8.5 V/9 M/7.5"
,dwayne299,2012-05-06T03:31Z,V:10 A:10 M:10 Great movie! Thanks BOZX!
,cberra88,2012-05-12T18:01Z,Audio isn't working?
